P3
20 10
255
0
0
0
0
200
200
0
145
145
0
90
90
0
35
35
0
235
235
0
180
180
0
125
125
0
70
70
0
15
15
0
215
215
0
160
160
0
105
105
0
50
50
0
250
250
0
195
195
0
140
140
0
85
85
0
30
30
0
230
230
200
0
200
200
200
145
200
145
90
200
90
35
200
35
235
200
235
180
200
180
125
200
125
70
200
70
15
200
15
215
200
215
160
200
160
105
200
105
50
200
50
250
200
250
195
200
195
140
200
140
85
200
85
30
200
30
230
200
230
175
145
0
145
145
200
90
145
145
35
145
90
235
145
35
180
145
235
125
145
180
70
145
125
15
145
70
215
145
15
160
145
215
105
145
160
50
145
105
250
145
50
195
145
250
140
145
195
85
145
140
30
145
85
230
145
30
175
145
230
120
90
0
90
90
200
35
90
145
235
90
90
180
90
35
125
90
235
70
90
180
15
90
125
215
90
70
160
90
15
105
90
215
50
90
160
250
90
105
195
90
50
140
90
250
85
90
195
30
90
140
230
90
85
175
90
30
120
90
230
65
35
0
35
35
200
235
35
145
180
35
90
125
35
35
70
35
235
15
35
180
215
35
125
160
35
70
105
35
15
50
35
215
250
35
160
195
35
105
140
35
50
85
35
250
30
35
195
230
35
140
175
35
85
120
35
30
65
35
230
10
235
0
235
235
200
180
235
145
125
235
90
70
235
35
15
235
235
215
235
180
160
235
125
105
235
70
50
235
15
250
235
215
195
235
160
140
235
105
85
235
50
30
235
250
230
235
195
175
235
140
120
235
85
65
235
30
10
235
230
210
180
0
180
180
200
125
180
145
70
180
90
15
180
35
215
180
235
160
180
180
105
180
125
50
180
70
250
180
15
195
180
215
140
180
160
85
180
105
30
180
50
230
180
250
175
180
195
120
180
140
65
180
85
10
180
30
210
180
230
155
125
0
125
125
200
70
125
145
15
125
90
215
125
35
160
125
235
105
125
180
50
125
125
250
125
70
195
125
15
140
125
215
85
125
160
30
125
105
230
125
50
175
125
250
120
125
195
65
125
140
10
125
85
210
125
30
155
125
230
100
70
0
70
70
200
15
70
145
215
70
90
160
70
35
105
70
235
50
70
180
250
70
125
195
70
70
140
70
15
85
70
215
30
70
160
230
70
105
175
70
50
120
70
250
65
70
195
10
70
140
210
70
85
155
70
30
100
70
230
45
15
0
15
15
200
215
15
145
160
15
90
105
15
35
50
15
235
250
15
180
195
15
125
140
15
70
85
15
15
30
15
215
230
15
160
175
15
105
120
15
50
65
15
250
10
15
195
210
15
140
155
15
85
100
15
30
45
15
230
245
