P3
2 3
255
0
0
0
0
90
90
90
0
90
90
90
180
180
0
180
180
90
15
