P3
7 7
255
0
0
0
0
30
30
0
60
60
0
90
90
0
120
120
0
150
150
0
180
180
30
0
30
30
30
60
30
60
90
30
90
120
30
120
150
30
150
180
30
180
210
60
0
60
60
30
90
60
60
120
60
90
150
60
120
180
60
150
210
60
180
240
90
0
90
90
30
120
90
60
150
90
90
180
90
120
210
90
150
240
90
180
15
120
0
120
120
30
150
120
60
180
120
90
210
120
120
240
120
150
15
120
180
45
150
0
150
150
30
180
150
60
210
150
90
240
150
120
15
150
150
45
150
180
75
180
0
180
180
30
210
180
60
240
180
90
15
180
120
45
180
150
75
180
180
105
